<mxfile host="app.diagrams.net" agent="Mozilla/5.0 (Windows NT 10.0; Win64; x64) AppleWebKit/537.36 (KHTML, like Gecko) Chrome/128.0.0.0 YaBrowser/24.10.0.0 Safari/537.36" version="25.0.1">
  <diagram name="Страница — 1" id="S2l5LCvn1jsaVFcY12d4">
    <mxGraphModel dx="1629" dy="2229" grid="1" gridSize="10" guides="1" tooltips="1" connect="1" arrows="1" fold="1" page="1" pageScale="1" pageWidth="827" pageHeight="1169" math="0" shadow="0">
      <root>
        <mxCell id="0" />
        <mxCell id="1" parent="0" />
        <mxCell id="WNq4JxdIsYY_N-Wuf4Pp-79" value="Объявление" style="swimlane;childLayout=stackLayout;horizontal=1;startSize=50;horizontalStack=0;rounded=1;fontSize=14;fontStyle=0;strokeWidth=2;resizeParent=0;resizeLast=1;shadow=0;dashed=0;align=center;arcSize=4;whiteSpace=wrap;html=1;" vertex="1" parent="1">
          <mxGeometry x="-263" y="-715" width="160" height="290" as="geometry">
            <mxRectangle x="-410" y="-660" width="120" height="50" as="alternateBounds" />
          </mxGeometry>
        </mxCell>
        <mxCell id="WNq4JxdIsYY_N-Wuf4Pp-80" value="&lt;table&gt;&lt;tbody&gt;&lt;tr&gt;&lt;td&gt;id&lt;/td&gt;&lt;/tr&gt;&lt;tr&gt;&lt;td&gt;images&lt;/td&gt;&lt;/tr&gt;&lt;tr&gt;&lt;td&gt;startDate&lt;/td&gt;&lt;/tr&gt;&lt;tr&gt;&lt;td&gt;endDate&lt;/td&gt;&lt;/tr&gt;&lt;tr&gt;&lt;td&gt;advertStartDate&lt;/td&gt;&lt;/tr&gt;&lt;tr&gt;&lt;td&gt;advertEndDate&lt;/td&gt;&lt;/tr&gt;&lt;tr&gt;&lt;td&gt;createDate&lt;/td&gt;&lt;/tr&gt;&lt;tr&gt;&lt;td&gt;registrationLink&lt;/td&gt;&lt;/tr&gt;&lt;tr&gt;&lt;td&gt;description&lt;/td&gt;&lt;/tr&gt;&lt;tr&gt;&lt;td&gt;tags&lt;/td&gt;&lt;/tr&gt;&lt;tr&gt;&lt;td&gt;online&lt;/td&gt;&lt;/tr&gt;&lt;tr&gt;&lt;td&gt;address&lt;/td&gt;&lt;/tr&gt;&lt;/tbody&gt;&lt;/table&gt;" style="align=left;strokeColor=none;fillColor=none;spacingLeft=4;fontSize=12;verticalAlign=top;resizable=0;rotatable=0;part=1;html=1;" vertex="1" parent="WNq4JxdIsYY_N-Wuf4Pp-79">
          <mxGeometry y="50" width="160" height="240" as="geometry" />
        </mxCell>
        <mxCell id="WNq4JxdIsYY_N-Wuf4Pp-81" value="Категория" style="swimlane;childLayout=stackLayout;horizontal=1;startSize=50;horizontalStack=0;rounded=1;fontSize=14;fontStyle=0;strokeWidth=2;resizeParent=0;resizeLast=1;shadow=0;dashed=0;align=center;arcSize=4;whiteSpace=wrap;html=1;" vertex="1" parent="1">
          <mxGeometry x="-33" y="-670" width="160" height="120" as="geometry">
            <mxRectangle x="-210" y="-690" width="100" height="40" as="alternateBounds" />
          </mxGeometry>
        </mxCell>
        <mxCell id="WNq4JxdIsYY_N-Wuf4Pp-82" value="&lt;table&gt;&lt;tbody&gt;&lt;tr&gt;&lt;td&gt;id&lt;/td&gt;&lt;/tr&gt;&lt;tr&gt;&lt;td&gt;name&lt;/td&gt;&lt;/tr&gt;&lt;tr&gt;&lt;td&gt;description&lt;/td&gt;&lt;/tr&gt;&lt;/tbody&gt;&lt;/table&gt;" style="align=left;strokeColor=none;fillColor=none;spacingLeft=4;fontSize=12;verticalAlign=top;resizable=0;rotatable=0;part=1;html=1;" vertex="1" parent="WNq4JxdIsYY_N-Wuf4Pp-81">
          <mxGeometry y="50" width="160" height="70" as="geometry" />
        </mxCell>
        <mxCell id="WNq4JxdIsYY_N-Wuf4Pp-83" value="Бизнес-пользователь" style="swimlane;childLayout=stackLayout;horizontal=1;startSize=50;horizontalStack=0;rounded=1;fontSize=14;fontStyle=0;strokeWidth=2;resizeParent=0;resizeLast=1;shadow=0;dashed=0;align=center;arcSize=4;whiteSpace=wrap;html=1;" vertex="1" parent="1">
          <mxGeometry x="-513" y="-850" width="160" height="220" as="geometry">
            <mxRectangle x="-650" y="-720" width="180" height="50" as="alternateBounds" />
          </mxGeometry>
        </mxCell>
        <mxCell id="WNq4JxdIsYY_N-Wuf4Pp-84" value="&lt;table&gt;&lt;tbody&gt;&lt;tr&gt;&lt;td&gt;id&lt;/td&gt;&lt;/tr&gt;&lt;tr&gt;&lt;td&gt;userName&lt;/td&gt;&lt;/tr&gt;&lt;tr&gt;&lt;td&gt;imageURL&lt;/td&gt;&lt;/tr&gt;&lt;tr&gt;&lt;td&gt;firstName&lt;/td&gt;&lt;/tr&gt;&lt;tr&gt;&lt;td&gt;lastName &lt;/td&gt;&lt;/tr&gt;&lt;tr&gt;&lt;td&gt;patronymic&lt;/td&gt;&lt;/tr&gt;&lt;tr&gt;&lt;td&gt;inn&lt;/td&gt;&lt;/tr&gt;&lt;tr&gt;&lt;td&gt;phone&lt;br&gt;&lt;span style=&quot;text-wrap: wrap;&quot;&gt;registrationDate&lt;/span&gt;&lt;br&gt;&lt;/td&gt;&lt;/tr&gt;&lt;/tbody&gt;&lt;/table&gt;" style="align=left;strokeColor=none;fillColor=none;spacingLeft=4;fontSize=12;verticalAlign=top;resizable=0;rotatable=0;part=1;html=1;" vertex="1" parent="WNq4JxdIsYY_N-Wuf4Pp-83">
          <mxGeometry y="50" width="160" height="170" as="geometry" />
        </mxCell>
        <mxCell id="WNq4JxdIsYY_N-Wuf4Pp-85" value="Модератор" style="swimlane;childLayout=stackLayout;horizontal=1;startSize=50;horizontalStack=0;rounded=1;fontSize=14;fontStyle=0;strokeWidth=2;resizeParent=0;resizeLast=1;shadow=0;dashed=0;align=center;arcSize=4;whiteSpace=wrap;html=1;" vertex="1" parent="1">
          <mxGeometry x="-533" y="-480" width="160" height="190" as="geometry">
            <mxRectangle x="-590" y="-590" width="110" height="50" as="alternateBounds" />
          </mxGeometry>
        </mxCell>
        <mxCell id="WNq4JxdIsYY_N-Wuf4Pp-86" value="&lt;table&gt;&lt;tbody&gt;&lt;tr&gt;&lt;td&gt;id&lt;/td&gt;&lt;/tr&gt;&lt;tr&gt;&lt;td&gt;firstName&lt;/td&gt;&lt;/tr&gt;&lt;tr&gt;&lt;td&gt;lastName &lt;/td&gt;&lt;/tr&gt;&lt;tr&gt;&lt;td&gt;patronymic&lt;/td&gt;&lt;/tr&gt;&lt;tr&gt;&lt;td&gt;phone&lt;/td&gt;&lt;/tr&gt;&lt;tr&gt;&lt;td&gt;passportSeries&lt;/td&gt;&lt;/tr&gt;&lt;tr&gt;&lt;td&gt;passportNumber&amp;nbsp;&lt;/td&gt;&lt;/tr&gt;&lt;/tbody&gt;&lt;/table&gt;" style="align=left;strokeColor=none;fillColor=none;spacingLeft=4;fontSize=12;verticalAlign=top;resizable=0;rotatable=0;part=1;html=1;" vertex="1" parent="WNq4JxdIsYY_N-Wuf4Pp-85">
          <mxGeometry y="50" width="160" height="140" as="geometry" />
        </mxCell>
        <mxCell id="WNq4JxdIsYY_N-Wuf4Pp-87" value="" style="edgeStyle=entityRelationEdgeStyle;fontSize=12;html=1;endArrow=ERmany;startArrow=ERmany;rounded=0;exitX=1;exitY=0.25;exitDx=0;exitDy=0;entryX=0;entryY=0.25;entryDx=0;entryDy=0;" edge="1" parent="1" source="WNq4JxdIsYY_N-Wuf4Pp-79" target="WNq4JxdIsYY_N-Wuf4Pp-82">
          <mxGeometry width="100" height="100" relative="1" as="geometry">
            <mxPoint x="-170" y="-590" as="sourcePoint" />
            <mxPoint x="-70" y="-690" as="targetPoint" />
          </mxGeometry>
        </mxCell>
        <mxCell id="WNq4JxdIsYY_N-Wuf4Pp-88" value="" style="edgeStyle=entityRelationEdgeStyle;fontSize=12;html=1;endArrow=ERmany;startArrow=ERmany;rounded=0;entryX=0;entryY=0.75;entryDx=0;entryDy=0;exitX=1;exitY=0.5;exitDx=0;exitDy=0;" edge="1" parent="1" source="WNq4JxdIsYY_N-Wuf4Pp-85" target="WNq4JxdIsYY_N-Wuf4Pp-80">
          <mxGeometry width="100" height="100" relative="1" as="geometry">
            <mxPoint x="-443" y="-450" as="sourcePoint" />
            <mxPoint x="-343" y="-550" as="targetPoint" />
          </mxGeometry>
        </mxCell>
        <mxCell id="WNq4JxdIsYY_N-Wuf4Pp-89" value="Договор" style="swimlane;childLayout=stackLayout;horizontal=1;startSize=50;horizontalStack=0;rounded=1;fontSize=14;fontStyle=0;strokeWidth=2;resizeParent=0;resizeLast=1;shadow=0;dashed=0;align=center;arcSize=4;whiteSpace=wrap;html=1;" vertex="1" parent="1">
          <mxGeometry x="-760" y="-692" width="160" height="195" as="geometry">
            <mxRectangle x="-810" y="-620" width="90" height="50" as="alternateBounds" />
          </mxGeometry>
        </mxCell>
        <mxCell id="WNq4JxdIsYY_N-Wuf4Pp-90" value="&lt;table&gt;&lt;tbody&gt;&lt;tr&gt;&lt;td&gt;id&lt;/td&gt;&lt;/tr&gt;&lt;tr&gt;&lt;td&gt;number&lt;/td&gt;&lt;/tr&gt;&lt;tr&gt;&lt;td&gt;signingDate &lt;/td&gt;&lt;/tr&gt;&lt;tr&gt;&lt;td&gt;startDate&lt;/td&gt;&lt;/tr&gt;&lt;tr&gt;&lt;td&gt;endDate&lt;/td&gt;&lt;/tr&gt;&lt;tr&gt;&lt;td&gt;price&lt;/td&gt;&lt;/tr&gt;&lt;tr&gt;&lt;td&gt;countAdvert&lt;/td&gt;&lt;/tr&gt;&lt;/tbody&gt;&lt;/table&gt;" style="align=left;strokeColor=none;fillColor=none;spacingLeft=4;fontSize=12;verticalAlign=top;resizable=0;rotatable=0;part=1;html=1;" vertex="1" parent="WNq4JxdIsYY_N-Wuf4Pp-89">
          <mxGeometry y="50" width="160" height="145" as="geometry" />
        </mxCell>
        <mxCell id="WNq4JxdIsYY_N-Wuf4Pp-91" value="" style="edgeStyle=entityRelationEdgeStyle;fontSize=12;html=1;endArrow=ERmany;rounded=0;exitX=1;exitY=0.25;exitDx=0;exitDy=0;entryX=0;entryY=0.25;entryDx=0;entryDy=0;" edge="1" parent="1" source="WNq4JxdIsYY_N-Wuf4Pp-84" target="WNq4JxdIsYY_N-Wuf4Pp-79">
          <mxGeometry width="100" height="100" relative="1" as="geometry">
            <mxPoint x="-326" y="-629" as="sourcePoint" />
            <mxPoint x="-410" y="-497" as="targetPoint" />
          </mxGeometry>
        </mxCell>
        <mxCell id="WNq4JxdIsYY_N-Wuf4Pp-92" value="" style="edgeStyle=entityRelationEdgeStyle;fontSize=12;html=1;endArrow=ERmany;rounded=0;exitX=-0.019;exitY=0.592;exitDx=0;exitDy=0;entryX=1;entryY=0.25;entryDx=0;entryDy=0;exitPerimeter=0;" edge="1" parent="1" source="WNq4JxdIsYY_N-Wuf4Pp-84" target="WNq4JxdIsYY_N-Wuf4Pp-90">
          <mxGeometry width="100" height="100" relative="1" as="geometry">
            <mxPoint x="-533" y="-627.5" as="sourcePoint" />
            <mxPoint x="-443" y="-512.5" as="targetPoint" />
          </mxGeometry>
        </mxCell>
        <mxCell id="WNq4JxdIsYY_N-Wuf4Pp-93" value="Объявление" style="swimlane;childLayout=stackLayout;horizontal=1;startSize=50;horizontalStack=0;rounded=1;fontSize=14;fontStyle=0;strokeWidth=2;resizeParent=0;resizeLast=1;shadow=0;dashed=0;align=center;arcSize=4;whiteSpace=wrap;html=1;" vertex="1" parent="1">
          <mxGeometry x="-263" y="-715" width="160" height="290" as="geometry">
            <mxRectangle x="-410" y="-660" width="120" height="50" as="alternateBounds" />
          </mxGeometry>
        </mxCell>
        <mxCell id="WNq4JxdIsYY_N-Wuf4Pp-94" value="&lt;table&gt;&lt;tbody&gt;&lt;tr&gt;&lt;td&gt;id&lt;/td&gt;&lt;/tr&gt;&lt;tr&gt;&lt;td&gt;images&lt;/td&gt;&lt;/tr&gt;&lt;tr&gt;&lt;td&gt;startDate&lt;/td&gt;&lt;/tr&gt;&lt;tr&gt;&lt;td&gt;endDate&lt;/td&gt;&lt;/tr&gt;&lt;tr&gt;&lt;td&gt;advertStartDate&lt;/td&gt;&lt;/tr&gt;&lt;tr&gt;&lt;td&gt;advertEndDate&lt;/td&gt;&lt;/tr&gt;&lt;tr&gt;&lt;td&gt;createDate&lt;/td&gt;&lt;/tr&gt;&lt;tr&gt;&lt;td&gt;registrationLink&lt;/td&gt;&lt;/tr&gt;&lt;tr&gt;&lt;td&gt;description&lt;/td&gt;&lt;/tr&gt;&lt;tr&gt;&lt;td&gt;tags&lt;/td&gt;&lt;/tr&gt;&lt;tr&gt;&lt;td&gt;online&lt;/td&gt;&lt;/tr&gt;&lt;tr&gt;&lt;td&gt;address&lt;/td&gt;&lt;/tr&gt;&lt;/tbody&gt;&lt;/table&gt;" style="align=left;strokeColor=none;fillColor=none;spacingLeft=4;fontSize=12;verticalAlign=top;resizable=0;rotatable=0;part=1;html=1;" vertex="1" parent="WNq4JxdIsYY_N-Wuf4Pp-93">
          <mxGeometry y="50" width="160" height="240" as="geometry" />
        </mxCell>
        <mxCell id="WNq4JxdIsYY_N-Wuf4Pp-95" value="Категория" style="swimlane;childLayout=stackLayout;horizontal=1;startSize=50;horizontalStack=0;rounded=1;fontSize=14;fontStyle=0;strokeWidth=2;resizeParent=0;resizeLast=1;shadow=0;dashed=0;align=center;arcSize=4;whiteSpace=wrap;html=1;" vertex="1" parent="1">
          <mxGeometry x="-33" y="-670" width="160" height="120" as="geometry">
            <mxRectangle x="-210" y="-690" width="100" height="40" as="alternateBounds" />
          </mxGeometry>
        </mxCell>
        <mxCell id="WNq4JxdIsYY_N-Wuf4Pp-96" value="&lt;table&gt;&lt;tbody&gt;&lt;tr&gt;&lt;td&gt;id&lt;/td&gt;&lt;/tr&gt;&lt;tr&gt;&lt;td&gt;name&lt;/td&gt;&lt;/tr&gt;&lt;tr&gt;&lt;td&gt;description&lt;/td&gt;&lt;/tr&gt;&lt;/tbody&gt;&lt;/table&gt;" style="align=left;strokeColor=none;fillColor=none;spacingLeft=4;fontSize=12;verticalAlign=top;resizable=0;rotatable=0;part=1;html=1;" vertex="1" parent="WNq4JxdIsYY_N-Wuf4Pp-95">
          <mxGeometry y="50" width="160" height="70" as="geometry" />
        </mxCell>
        <mxCell id="WNq4JxdIsYY_N-Wuf4Pp-97" value="Бизнес-пользователь" style="swimlane;childLayout=stackLayout;horizontal=1;startSize=50;horizontalStack=0;rounded=1;fontSize=14;fontStyle=0;strokeWidth=2;resizeParent=0;resizeLast=1;shadow=0;dashed=0;align=center;arcSize=4;whiteSpace=wrap;html=1;" vertex="1" parent="1">
          <mxGeometry x="-513" y="-850" width="160" height="220" as="geometry">
            <mxRectangle x="-650" y="-720" width="180" height="50" as="alternateBounds" />
          </mxGeometry>
        </mxCell>
        <mxCell id="WNq4JxdIsYY_N-Wuf4Pp-98" value="&lt;table&gt;&lt;tbody&gt;&lt;tr&gt;&lt;td&gt;id&lt;/td&gt;&lt;/tr&gt;&lt;tr&gt;&lt;td&gt;userName&lt;/td&gt;&lt;/tr&gt;&lt;tr&gt;&lt;td&gt;imageURL&lt;/td&gt;&lt;/tr&gt;&lt;tr&gt;&lt;td&gt;firstName&lt;/td&gt;&lt;/tr&gt;&lt;tr&gt;&lt;td&gt;lastName &lt;/td&gt;&lt;/tr&gt;&lt;tr&gt;&lt;td&gt;patronymic&lt;/td&gt;&lt;/tr&gt;&lt;tr&gt;&lt;td&gt;inn&lt;/td&gt;&lt;/tr&gt;&lt;tr&gt;&lt;td&gt;phone&lt;br&gt;&lt;span style=&quot;text-wrap: wrap;&quot;&gt;registrationDate&lt;/span&gt;&lt;br&gt;&lt;/td&gt;&lt;/tr&gt;&lt;/tbody&gt;&lt;/table&gt;" style="align=left;strokeColor=none;fillColor=none;spacingLeft=4;fontSize=12;verticalAlign=top;resizable=0;rotatable=0;part=1;html=1;" vertex="1" parent="WNq4JxdIsYY_N-Wuf4Pp-97">
          <mxGeometry y="50" width="160" height="170" as="geometry" />
        </mxCell>
        <mxCell id="WNq4JxdIsYY_N-Wuf4Pp-99" value="Модератор" style="swimlane;childLayout=stackLayout;horizontal=1;startSize=50;horizontalStack=0;rounded=1;fontSize=14;fontStyle=0;strokeWidth=2;resizeParent=0;resizeLast=1;shadow=0;dashed=0;align=center;arcSize=4;whiteSpace=wrap;html=1;" vertex="1" parent="1">
          <mxGeometry x="-533" y="-480" width="160" height="190" as="geometry">
            <mxRectangle x="-590" y="-590" width="110" height="50" as="alternateBounds" />
          </mxGeometry>
        </mxCell>
        <mxCell id="WNq4JxdIsYY_N-Wuf4Pp-100" value="&lt;table&gt;&lt;tbody&gt;&lt;tr&gt;&lt;td&gt;id&lt;/td&gt;&lt;/tr&gt;&lt;tr&gt;&lt;td&gt;firstName&lt;/td&gt;&lt;/tr&gt;&lt;tr&gt;&lt;td&gt;lastName &lt;/td&gt;&lt;/tr&gt;&lt;tr&gt;&lt;td&gt;patronymic&lt;/td&gt;&lt;/tr&gt;&lt;tr&gt;&lt;td&gt;phone&lt;/td&gt;&lt;/tr&gt;&lt;tr&gt;&lt;td&gt;passportSeries&lt;/td&gt;&lt;/tr&gt;&lt;tr&gt;&lt;td&gt;passportNumber&amp;nbsp;&lt;/td&gt;&lt;/tr&gt;&lt;/tbody&gt;&lt;/table&gt;" style="align=left;strokeColor=none;fillColor=none;spacingLeft=4;fontSize=12;verticalAlign=top;resizable=0;rotatable=0;part=1;html=1;" vertex="1" parent="WNq4JxdIsYY_N-Wuf4Pp-99">
          <mxGeometry y="50" width="160" height="140" as="geometry" />
        </mxCell>
        <mxCell id="WNq4JxdIsYY_N-Wuf4Pp-101" value="" style="edgeStyle=entityRelationEdgeStyle;fontSize=12;html=1;endArrow=ERmany;startArrow=ERmany;rounded=0;exitX=1;exitY=0.25;exitDx=0;exitDy=0;entryX=0;entryY=0.25;entryDx=0;entryDy=0;" edge="1" parent="1" source="WNq4JxdIsYY_N-Wuf4Pp-93" target="WNq4JxdIsYY_N-Wuf4Pp-96">
          <mxGeometry width="100" height="100" relative="1" as="geometry">
            <mxPoint x="-170" y="-590" as="sourcePoint" />
            <mxPoint x="-70" y="-690" as="targetPoint" />
          </mxGeometry>
        </mxCell>
        <mxCell id="WNq4JxdIsYY_N-Wuf4Pp-102" value="" style="edgeStyle=entityRelationEdgeStyle;fontSize=12;html=1;endArrow=ERmany;startArrow=ERmany;rounded=0;entryX=0;entryY=0.75;entryDx=0;entryDy=0;exitX=1;exitY=0.5;exitDx=0;exitDy=0;" edge="1" parent="1" source="WNq4JxdIsYY_N-Wuf4Pp-99" target="WNq4JxdIsYY_N-Wuf4Pp-94">
          <mxGeometry width="100" height="100" relative="1" as="geometry">
            <mxPoint x="-443" y="-450" as="sourcePoint" />
            <mxPoint x="-343" y="-550" as="targetPoint" />
          </mxGeometry>
        </mxCell>
        <mxCell id="WNq4JxdIsYY_N-Wuf4Pp-103" value="Договор" style="swimlane;childLayout=stackLayout;horizontal=1;startSize=50;horizontalStack=0;rounded=1;fontSize=14;fontStyle=0;strokeWidth=2;resizeParent=0;resizeLast=1;shadow=0;dashed=0;align=center;arcSize=4;whiteSpace=wrap;html=1;" vertex="1" parent="1">
          <mxGeometry x="-760" y="-692" width="160" height="195" as="geometry">
            <mxRectangle x="-810" y="-620" width="90" height="50" as="alternateBounds" />
          </mxGeometry>
        </mxCell>
        <mxCell id="WNq4JxdIsYY_N-Wuf4Pp-104" value="&lt;table&gt;&lt;tbody&gt;&lt;tr&gt;&lt;td&gt;id&lt;/td&gt;&lt;/tr&gt;&lt;tr&gt;&lt;td&gt;number&lt;/td&gt;&lt;/tr&gt;&lt;tr&gt;&lt;td&gt;signingDate &lt;/td&gt;&lt;/tr&gt;&lt;tr&gt;&lt;td&gt;startDate&lt;/td&gt;&lt;/tr&gt;&lt;tr&gt;&lt;td&gt;endDate&lt;/td&gt;&lt;/tr&gt;&lt;tr&gt;&lt;td&gt;price&lt;/td&gt;&lt;/tr&gt;&lt;tr&gt;&lt;td&gt;countAdvert&lt;/td&gt;&lt;/tr&gt;&lt;/tbody&gt;&lt;/table&gt;" style="align=left;strokeColor=none;fillColor=none;spacingLeft=4;fontSize=12;verticalAlign=top;resizable=0;rotatable=0;part=1;html=1;" vertex="1" parent="WNq4JxdIsYY_N-Wuf4Pp-103">
          <mxGeometry y="50" width="160" height="145" as="geometry" />
        </mxCell>
        <mxCell id="WNq4JxdIsYY_N-Wuf4Pp-105" value="" style="edgeStyle=entityRelationEdgeStyle;fontSize=12;html=1;endArrow=ERmany;rounded=0;exitX=1;exitY=0.25;exitDx=0;exitDy=0;entryX=0;entryY=0.25;entryDx=0;entryDy=0;" edge="1" parent="1" source="WNq4JxdIsYY_N-Wuf4Pp-98" target="WNq4JxdIsYY_N-Wuf4Pp-93">
          <mxGeometry width="100" height="100" relative="1" as="geometry">
            <mxPoint x="-326" y="-629" as="sourcePoint" />
            <mxPoint x="-410" y="-497" as="targetPoint" />
          </mxGeometry>
        </mxCell>
        <mxCell id="WNq4JxdIsYY_N-Wuf4Pp-106" value="" style="edgeStyle=entityRelationEdgeStyle;fontSize=12;html=1;endArrow=ERmany;rounded=0;exitX=-0.019;exitY=0.592;exitDx=0;exitDy=0;entryX=1;entryY=0.25;entryDx=0;entryDy=0;exitPerimeter=0;" edge="1" parent="1" source="WNq4JxdIsYY_N-Wuf4Pp-98" target="WNq4JxdIsYY_N-Wuf4Pp-104">
          <mxGeometry width="100" height="100" relative="1" as="geometry">
            <mxPoint x="-533" y="-627.5" as="sourcePoint" />
            <mxPoint x="-443" y="-512.5" as="targetPoint" />
          </mxGeometry>
        </mxCell>
      </root>
    </mxGraphModel>
  </diagram>
</mxfile>
